:SAMPLES-PER-SECOND 30
:FULLY-SPECIFIED
:DEGREES
72
root  -23.15866666 39.10577729 34.3940014 0.4696661532 3.403581858 -0.04825687036
lowerback  7.809519768 0.3960930109 -4.901989937
upperback  1.226300001 0.1313930005 0.4138880074
thorax  -3.12071991 0.1202720031 3.173089981
lowerneck  -15.51220036 3.626960039 -4.38176012
upperneck  25.54190063 5.745669842 2.319759846
head  10.55290031 2.495280027 2.338410139
lclavicle  0 -5.34481991e-014 2.981770104e-014
lhumerus  -23.79509926 9.370559692 82.85009766
lradius  0.003583191894 6.643666666e-007 28.51680183
lwrist  -1.645157397e-007 -3.533851896e-007 -0.4583871365
lhand  -5.505032044e-031 -15.8135004 33.60620117
lfingers  90 7.125020027 -90
lthumb  93.41605384 18.01962653 79.07819387
rclavicle  0 -5.34481991e-014 2.981770104e-014
rhumerus  -38.65950012 -20.34740067 -71.64710236
rradius  -1.296506525e-006 2.359789448e-007 39.53549957
rwrist  -2.281664457e-008 -8.593936229e-009 13.97109985
rhand  -1.345748685e-031 10.2737999 9.996669769
rfingers  -90 -7.125020027 -90
rthumb  -72.52445805 -22.91766803 -51.04506765
rfemur  -25.00770378 -3.961850166 20.10490227
rtibia  9.670418422e-007 1.119611625e-006 58.06581497
rfoot  2.556521167e-006 -15.85970974 2.399819374
rtoes  2.336001174 19.8686595 -96.84438506
lfemur  -11.99221897 -2.193170309 -22.68848991
ltibia  -3.641206786e-005 2.004581745e-007 25.29273987
lfoot  -5.693161143e-007 -13.25472069 -6.5721035
ltoes  -5.298979543 -19.31302686 -105.6655569
73
root  -23.14977721 39.06822205 34.57422332 0.4770018756 3.504798889 -0.1071191654
lowerback  7.852049828 0.3893409669 -4.791570187
upperback  1.272220016 0.1306080073 0.4152930081
thorax  -3.096460104 0.1172650009 3.112380028
lowerneck  -15.81519985 3.570290089 -4.446290016
upperneck  25.89459991 5.647920132 2.535949707
head  10.7354002 2.460969925 2.433619976
lclavicle  0 -5.34481991e-014 2.981770104e-014
lhumerus  -22.98430061 8.568440437 83.15339661
lradius  0.003583191894 6.643666666e-007 28.81260109
lwrist  -1.645157397e-007 -3.533851896e-007 -0.6830050349
lhand  -5.505032044e-031 -15.8135004 33.60620117
lfingers  90 7.125020027 -90
lthumb  93.41605384 18.01962653 79.07819387
rclavicle  0 -5.34481991e-014 2.981770104e-014
rhumerus  -38.7154007 -20.43880081 -71.64730072
rradius  -1.296506525e-006 2.359789448e-007 39.46509933
rwrist  -2.281664457e-008 -8.593936229e-009 14.09049988
rhand  -1.345748685e-031 10.2737999 9.996669769
rfingers  -90 -7.125020027 -90
rthumb  -72.52445805 -22.91766803 -51.04506765
rfemur  -25.72349739 -3.899490356 20.13460159
rtibia  9.670418422e-007 1.119611625e-006 57.59049606
rfoot  2.556521167e-006 -15.38939667 2.457770824
rtoes  2.336001174 19.8686595 -96.84438506
lfemur  -11.80710125 -2.193080187 -22.64389801
ltibia  -3.641206786e-005 2.004581745e-007 25.44879913
lfoot  -5.693161143e-007 -13.36019897 -6.714039326
ltoes  -5.298979543 -19.31302686 -105.6655569
74
root  -23.15044403 39.02911089 34.74977749 0.411552161 3.554061651 -0.0602828525
lowerback  7.947949886 0.3955909908 -4.859600067
upperback  1.335919976 0.1294399947 0.4099889994
thorax  -3.083729982 0.1158739999 3.145430088
lowerneck  -15.8774004 3.538360119 -4.464459896
upperneck  25.97139931 5.580029964 2.651949883
head  10.77359962 2.440510035 2.473579884
lclavicle  0 -5.34481991e-014 2.981770104e-014
lhumerus  -22.03280067 8.131500244 83.35489655
lradius  0.003583191894 6.643666666e-007 28.82250023
lwrist  -1.645157397e-007 -3.533851896e-007 -1.296049833
lhand  -5.505032044e-031 -15.8135004 33.60620117
lfingers  90 7.125020027 -90
lthumb  93.41605384 18.01962653 79.07819387
rclavicle  0 -5.34481991e-014 2.981770104e-014
rhumerus  -38.69120026 -20.69960022 -71.56780243
rradius  -1.296506525e-006 2.359789448e-007 39.10430145
rwrist  -2.281664457e-008 -8.593936229e-009 14.43630028
rhand  -1.345748685e-031 10.2737999 9.996669769
rfingers  -90 -7.125020027 -90
rthumb  -72.52445805 -22.91766803 -51.04506765
rfemur  -26.35050392 -3.782640219 20.08620071
rtibia  9.670418422e-007 1.119611625e-006 57.08129883
rfoot  2.556521167e-006 -15.10149574 2.227479696
rtoes  2.336001174 19.8686595 -96.84438506
lfemur  -11.53240395 -2.071559906 -22.69379997
ltibia  -3.641206786e-005 2.004581745e-007 25.61250496
lfoot  -5.693161143e-007 -13.41990185 -6.898611069
ltoes  -5.298979543 -19.31302686 -105.6655569
75
root  -23.16288835 39.00822317 34.942666 0.304964155 3.438211441 -0.1491592079
lowerback  7.969190121 0.3967599869 -4.927199841
upperback  1.330189943 0.1268070042 0.4947679937
thorax  -3.101560116 0.1161530018 3.272170067
lowerneck  -15.38099957 3.538110018 -4.361589909
upperneck  25.74489975 5.563220024 2.495910168
head  10.60289955 2.430999994 2.376610041
lclavicle  0 -5.34481991e-014 2.981770104e-014
lhumerus  -21.44219971 7.913119793 83.49120331
lradius  0.003583191894 6.643666666e-007 28.95890045
lwrist  -1.645157397e-007 -3.533851896e-007 -1.847779989
lhand  -5.505032044e-031 -15.8135004 33.60620117
lfingers  90 7.125020027 -90
lthumb  93.41605384 18.01962653 79.07819387
rclavicle  0 -5.34481991e-014 2.981770104e-014
rhumerus  -38.88430023 -20.83550072 -71.42420197
rradius  -1.296506525e-006 2.359789448e-007 38.73429871
rwrist  -2.281664457e-008 -8.593936229e-009 14.9921999
rhand  -1.345748685e-031 10.2737999 9.996669769
rfingers  -90 -7.125020027 -90
rthumb  -72.52445805 -22.91766803 -51.04506765
rfemur  -26.9261055 -3.466119289 20.23350143
rtibia  9.670418422e-007 1.119611625e-006 56.50490952
rfoot  2.556521167e-006 -15.15510082 1.702229142
rtoes  2.336001174 19.8686595 -96.84438506
lfemur  -11.1502161 -1.930290103 -22.58529663
ltibia  -3.641206786e-005 2.004581745e-007 25.71822548
lfoot  -5.693161143e-007 -13.63890839 -6.83272171
ltoes  -5.298979543 -19.31302686 -105.6655569
